<svg width="140" height="47" viewBox="0 0 140 47" fill="none" xmlns="http://www.w3.org/2000/svg">
<path d="M28.7812 0.902344V3.80112H42.3268V17.3666H45.2202V0.902344H28.7812Z" fill="#F7A520"/>
<path d="M16.8085 0.902344H0.414062V17.3666H3.29936V3.80112H16.8085V0.902344Z" fill="#3BBFED"/>
<path d="M16.8085 42.9525H3.29936V29.3789H0.414062V45.8513H16.8085V42.9525Z" fill="#492771"/>
<path d="M42.3268 29.3789V42.9525H28.7812V45.8513H45.2202V29.3789H42.3268Z" fill="#C0398D"/>
<path d="M57.8281 0.902943H62.0793C62.9496 0.891345 63.814 1.04827 64.6251 1.36513C65.3601 1.6522 66.0306 2.08362 66.5972 2.6341C67.1459 3.17454 67.579 3.82152 67.8701 4.53554C68.174 5.29013 68.3264 6.09749 68.3186 6.91132C68.3271 7.73072 68.169 8.54324 67.8539 9.29927C67.5567 10.014 67.1182 10.6608 66.5648 11.2007C65.9984 11.7454 65.3312 12.1738 64.6009 12.4616C63.8152 12.7731 62.9766 12.9287 62.1318 12.9197H57.8281V0.902943ZM60.6851 3.57063V10.2399H61.9985C62.4845 10.2469 62.9674 10.1602 63.4209 9.98444C63.8262 9.82425 64.1947 9.58283 64.5039 9.27494C64.8042 8.97278 65.0382 8.61097 65.1909 8.21273C65.3528 7.79828 65.4338 7.35645 65.4293 6.91132C65.4336 6.46298 65.3555 6.01769 65.199 5.59775C65.053 5.19995 64.8243 4.83786 64.5281 4.53554C64.2195 4.22314 63.8474 3.98115 63.4371 3.82605C62.9616 3.64865 62.4572 3.56203 61.95 3.57063H60.6851Z" fill="#1E1E1C"/>
<path d="M70.0781 0.902344H72.9675V12.9191H70.0781V0.902344Z" fill="#1E1E1C"/>
<path d="M81.0458 13.0836C80.146 13.0972 79.2527 12.929 78.4192 12.589C77.6736 12.2841 76.9993 11.8271 76.4391 11.247C75.8967 10.6814 75.4722 10.0129 75.1904 9.2807C74.9008 8.5239 74.7542 7.71962 74.758 6.90897C74.7519 6.07573 74.9084 5.24935 75.2187 4.47643C75.5079 3.74448 75.9392 3.07748 76.4875 2.51418C77.0464 1.95756 77.708 1.51552 78.4353 1.21277C79.3172 0.870855 80.2588 0.71079 81.2037 0.742137C82.1487 0.773483 83.0777 0.995597 83.9351 1.39521C84.7626 1.8182 85.486 2.42062 86.0526 3.1588L83.6563 4.85347C83.3846 4.41584 83.0027 4.05783 82.5491 3.81559C82.0487 3.56199 81.493 3.43795 80.9327 3.45476C80.4866 3.45037 80.0447 3.54015 79.6355 3.71829C79.2459 3.88899 78.8932 4.13409 78.597 4.43994C78.2897 4.75453 78.0467 5.1264 77.8817 5.53458C77.7033 5.97045 77.614 6.43782 77.619 6.90897C77.6113 7.38805 77.695 7.86419 77.8655 8.31174C78.0214 8.71744 78.2579 9.08711 78.5606 9.39827C78.867 9.70661 79.2346 9.94695 79.6395 10.1037C80.0735 10.2728 80.5358 10.3568 81.0014 10.351C81.6189 10.3706 82.2274 10.1978 82.743 9.8564C83.2203 9.51583 83.577 9.03159 83.7614 8.47391H80.4275V5.80622H86.8649V7.18871C86.8721 7.96282 86.7351 8.73146 86.4608 9.45503C86.1924 10.1549 85.7902 10.7953 85.2768 11.3403C84.7551 11.8859 84.1299 12.3215 83.4381 12.6214C82.6827 12.9449 81.867 13.1024 81.0458 13.0836V13.0836Z" fill="#1E1E1C"/>
<path d="M88.6719 0.902344H91.5612V12.9191H88.6719V0.902344Z" fill="#1E1E1C"/>
<path d="M96.253 3.54165H93V0.902344H102.262V3.54165H99.0292V12.9069H96.2409L96.253 3.54165Z" fill="#1E1E1C"/>
<path d="M106.128 0.902344H108.904L113.35 12.9191H110.444L109.822 11.1271H105.207L104.585 12.9191H101.695L106.128 0.902344ZM106.096 8.62566H108.925L107.51 4.57143L106.096 8.62566Z" fill="#1E1E1C"/>
<path d="M114.453 0.902344H117.326V10.1703H122.547V12.9191H114.465L114.453 0.902344Z" fill="#1E1E1C"/>
<path d="M57.8281 17.3638H62.6208C63.2735 17.3545 63.9216 17.4743 64.5281 17.7165C65.0737 17.9374 65.5697 18.2654 65.987 18.6814C66.3938 19.0859 66.713 19.5704 66.9245 20.1045C67.3608 21.2185 67.3608 22.4568 66.9245 23.5708C66.7116 24.1061 66.3973 24.5948 65.9991 25.0101C65.5808 25.4328 65.0837 25.7689 64.5362 25.9993C63.9237 26.2516 63.2667 26.3771 62.6046 26.3682H60.7013V29.3805H57.8281V17.3638ZM60.7013 19.9626V23.7006H62.4753C62.7208 23.7083 62.9655 23.6672 63.1951 23.5795C63.4246 23.4918 63.6346 23.3593 63.8129 23.1897C63.9914 23.015 64.1312 22.8044 64.2231 22.5718C64.315 22.3391 64.357 22.0897 64.3463 21.8397C64.3561 21.5885 64.3138 21.3381 64.2219 21.1043C64.1301 20.8705 63.9908 20.6584 63.8129 20.4815C63.6357 20.3099 63.4261 20.1756 63.1964 20.0864C62.9666 19.9973 62.7215 19.9552 62.4753 19.9626H60.7013Z" fill="#1E1E1C"/>
<path d="M68.8047 17.3642H73.961C74.617 17.3522 75.2695 17.4635 75.8846 17.6926C76.4103 17.8909 76.8912 18.1928 77.2989 18.5804C77.6772 18.9507 77.9733 19.397 78.1678 19.8899C78.3676 20.4069 78.4677 20.9572 78.4628 21.5116C78.4721 22.2394 78.294 22.9572 77.9455 23.5955C77.6141 24.2029 77.1218 24.7066 76.5231 25.051L78.7578 29.3971H75.6057L73.9126 25.7929H71.6617V29.3971H68.8047V17.3642ZM71.6617 19.9791V23.1739H73.7469C73.9927 23.1942 74.2401 23.1629 74.4732 23.0819C74.7063 23.001 74.92 22.8721 75.1006 22.7036C75.3894 22.3943 75.546 21.984 75.537 21.5603C75.5488 21.3465 75.5152 21.1326 75.4386 20.9328C75.362 20.7329 75.244 20.5516 75.0925 20.4008C74.7121 20.098 74.2306 19.953 73.7469 19.9954L71.6617 19.9791Z" fill="#1E1E1C"/>
<path d="M85.8099 29.5479C84.9861 29.5539 84.1701 29.3883 83.4135 29.0614C82.3031 28.5904 81.3565 27.7999 80.6934 26.7897C80.0303 25.7796 79.6804 24.595 79.6877 23.3854C79.6811 22.5602 79.8419 21.7422 80.1605 20.9813C80.4692 20.2511 80.9135 19.5866 81.4698 19.0231C82.0265 18.4596 82.6865 18.0094 83.4135 17.6973C84.1726 17.3763 84.9881 17.2109 85.8119 17.2109C86.6357 17.2109 87.4511 17.3763 88.2102 17.6973C88.9386 18.0113 89.6009 18.4612 90.1621 19.0231C90.7222 19.5842 91.1683 20.2493 91.4754 20.9813C91.7967 21.7415 91.959 22.5597 91.9522 23.3854C91.9566 24.1958 91.8014 24.999 91.4956 25.749C91.1898 26.499 90.7393 27.181 90.1701 27.7559C89.6113 28.3147 88.9517 28.7618 88.2264 29.0735C87.4621 29.3971 86.6393 29.5586 85.8099 29.5479V29.5479ZM85.8099 26.7099C86.2587 26.7163 86.7037 26.6265 87.1151 26.4464C87.5061 26.2786 87.8584 26.0316 88.1496 25.7207C88.4406 25.4134 88.6722 25.0546 88.8326 24.6625C88.9994 24.2521 89.0832 23.8125 89.0791 23.3692C89.0873 22.4861 88.7508 21.6349 88.1415 20.9975C87.8447 20.6894 87.4905 20.4429 87.0989 20.2718C86.692 20.0979 86.2542 20.0083 85.8119 20.0083C85.3696 20.0083 84.9318 20.0979 84.5248 20.2718C84.1359 20.439 83.7862 20.6863 83.4984 20.9975C83.2101 21.3099 82.9814 21.6726 82.8235 22.0678C82.6571 22.4812 82.5733 22.9234 82.577 23.3692C82.5741 23.8116 82.655 24.2505 82.8155 24.6625C82.9683 25.0557 83.1962 25.4151 83.4863 25.7207C83.7769 26.0287 84.1258 26.2754 84.5127 26.4464C84.9211 26.6274 85.3634 26.7187 85.8099 26.714V26.7099Z" fill="#1E1E1C"/>
<path d="M93.6953 17.3638H97.9505C98.8208 17.3529 99.6851 17.5098 100.496 17.826C101.231 18.1102 101.9 18.5404 102.464 19.0909C103.014 19.6302 103.448 20.2775 103.737 20.9924C104.044 21.7475 104.198 22.5566 104.19 23.3722C104.196 24.1917 104.036 25.004 103.721 25.7601C103.425 26.4742 102.987 27.1209 102.436 27.6616C101.87 28.2035 101.204 28.6303 100.476 28.9184C99.6892 29.2309 98.8494 29.3878 98.003 29.3806H93.6953V17.3638ZM96.5523 20.0315V26.6967H97.8657C98.3517 26.7037 98.8346 26.617 99.2881 26.4412C99.6934 26.2811 100.062 26.0396 100.371 25.7317C100.672 25.4312 100.908 25.0708 101.062 24.6736C101.222 24.2585 101.303 23.8171 101.301 23.3722C101.304 22.9226 101.226 22.476 101.07 22.0546C100.921 21.6575 100.691 21.2958 100.395 20.9924C100.085 20.6826 99.7135 20.4422 99.3043 20.2869C98.8289 20.1089 98.3244 20.0222 97.8172 20.0315H96.5523Z" fill="#1E1E1C"/>
<path d="M110.651 29.5503C109.963 29.5598 109.279 29.4472 108.63 29.2179C108.061 29.0157 107.542 28.6904 107.111 28.2651C106.686 27.8278 106.357 27.3057 106.145 26.7326C105.904 26.0692 105.786 25.367 105.798 24.6609V17.3633H108.707V24.6609C108.669 25.2242 108.855 25.7797 109.224 26.2056C109.407 26.3903 109.626 26.5343 109.868 26.6279C110.109 26.7215 110.368 26.7628 110.627 26.7488C110.887 26.76 111.147 26.7175 111.39 26.6241C111.633 26.5306 111.855 26.3882 112.041 26.2056C112.23 25.9979 112.376 25.754 112.469 25.4886C112.562 25.2232 112.6 24.9417 112.583 24.6609V17.3633H115.488V24.6609C115.499 25.3666 115.383 26.0685 115.145 26.7326C114.933 27.3067 114.603 27.8291 114.175 28.2651C113.742 28.6923 113.22 29.0177 112.647 29.2179C112.006 29.4444 111.331 29.5569 110.651 29.5503V29.5503Z" fill="#1E1E1C"/>
<path d="M123.295 29.5481C122.434 29.5592 121.58 29.3936 120.785 29.0615C120.058 28.7568 119.398 28.3088 118.846 27.7439C118.306 27.1791 117.882 26.5139 117.597 25.7857C117.297 25.0104 117.148 24.1848 117.157 23.3532C117.15 22.5199 117.307 21.6935 117.617 20.9206C117.91 20.1892 118.348 19.5247 118.903 18.9673C119.459 18.4099 120.121 17.9711 120.85 17.6773C122.159 17.1545 123.601 17.065 124.964 17.4218C125.478 17.5603 125.974 17.7619 126.439 18.0219C126.895 18.2776 127.315 18.594 127.688 18.9624C128.057 19.3243 128.378 19.7332 128.641 20.1787L126.128 21.7761C125.875 21.2592 125.49 20.8187 125.012 20.499C124.509 20.1765 123.92 20.0127 123.323 20.0287C122.673 20.0178 122.036 20.2092 121.499 20.5765C120.962 20.9439 120.552 21.4692 120.325 22.0802C120.165 22.498 120.084 22.9421 120.086 23.3897C120.083 23.8314 120.161 24.2699 120.317 24.683C120.464 25.0735 120.688 25.4305 120.975 25.733C121.259 26.0377 121.601 26.2818 121.982 26.4506C122.393 26.63 122.838 26.7198 123.287 26.7141C123.934 26.7388 124.57 26.5446 125.093 26.1628C125.575 25.7965 125.955 25.3121 126.196 24.7559L128.839 26.1709C128.587 26.6652 128.272 27.1244 127.902 27.5372C127.533 27.952 127.111 28.3147 126.645 28.6156C126.167 28.9227 125.647 29.159 125.101 29.317C124.513 29.4788 123.905 29.5566 123.295 29.5481V29.5481Z" fill="#1E1E1C"/>
<path d="M133.151 20.0107H129.898V17.3633H139.161V20.0107H135.928V29.38H133.151V20.0107Z" fill="#1E1E1C"/>
<path d="M62.2215 46.0074C61.6172 46.0141 61.014 45.9529 60.4233 45.825C59.9231 45.7147 59.4376 45.546 58.9766 45.3223C58.5576 45.1195 58.1664 44.8633 57.8128 44.5601C57.4727 44.2669 57.1565 43.9469 56.8672 43.6033L59.3322 41.6289C59.6492 42.1343 60.0761 42.5612 60.5809 42.8776C61.1066 43.1877 61.709 43.3423 62.3185 43.3235C62.7163 43.3511 63.1114 43.2409 63.4379 43.0114C63.5591 42.9149 63.6562 42.7913 63.7215 42.6506C63.7867 42.5098 63.8183 42.3557 63.8137 42.2005C63.8202 42.0241 63.7691 41.8505 63.6682 41.7059C63.5435 41.5567 63.3857 41.4387 63.2075 41.3613C62.9587 41.2483 62.7004 41.1575 62.4357 41.0896C62.1286 41.0086 61.7609 40.9153 61.3325 40.818C60.883 40.7126 60.4393 40.5841 60.003 40.4329C59.5698 40.2947 59.1608 40.0895 58.7907 39.8247C58.4241 39.5645 58.1203 39.2251 57.9017 38.8314C57.6568 38.3591 57.5384 37.831 57.5582 37.2989C57.5537 36.7923 57.6657 36.2915 57.8855 35.8354C58.1042 35.3868 58.4123 34.988 58.7907 34.6637C59.1979 34.3216 59.6652 34.0589 60.1687 33.8893C60.741 33.7006 61.3403 33.6074 61.9427 33.6136C62.4445 33.6087 62.9454 33.6549 63.4379 33.7515C63.8651 33.8351 64.2804 33.9713 64.6744 34.1569C65.0564 34.3384 65.4158 34.5643 65.7453 34.8299C66.0914 35.11 66.4169 35.4149 66.7192 35.7421L64.4239 37.5381C64.1634 37.1133 63.8078 36.7551 63.3854 36.4921C62.927 36.2306 62.4049 36.1028 61.8781 36.1232C61.4872 36.0898 61.0984 36.2072 60.791 36.4516C60.6847 36.5439 60.5992 36.6577 60.54 36.7856C60.4808 36.9135 60.4493 37.0525 60.4475 37.1935C60.444 37.2777 60.4575 37.3618 60.4874 37.4405C60.5173 37.5193 60.5628 37.5911 60.6213 37.6517C60.7604 37.7893 60.9291 37.8933 61.1143 37.9557C61.3651 38.053 61.6232 38.1303 61.8861 38.1868L62.8802 38.426C63.3288 38.5274 63.7814 38.649 64.2421 38.795C64.6897 38.9408 65.1133 39.1526 65.4988 39.4234C65.8786 39.6946 66.1945 40.0461 66.4242 40.4531C66.684 40.9425 66.8095 41.4924 66.7879 42.0464C66.7933 42.5905 66.6744 43.1286 66.4404 43.6195C66.2122 44.0953 65.889 44.519 65.4907 44.8641C65.0619 45.2208 64.5716 45.4957 64.044 45.675C63.4601 45.8902 62.8436 46.0026 62.2215 46.0074Z" fill="#1E1E1C"/>
<path d="M74.1113 46.0081C73.2491 46.0197 72.3937 45.8541 71.5977 45.5216C70.8705 45.2179 70.2121 44.7697 69.6621 44.204C69.1183 43.6426 68.6935 42.9765 68.4134 42.2458C68.1145 41.4771 67.9637 40.6586 67.9689 39.8335C67.9632 39.0003 68.1197 38.174 68.4296 37.401C68.7241 36.6705 69.162 36.0069 69.7174 35.4497C70.2728 34.8925 70.9343 34.4531 71.6624 34.1576C72.9727 33.6404 74.4123 33.551 75.7762 33.9022C76.2917 34.0428 76.7883 34.2456 77.2552 34.5063C77.7125 34.7591 78.1327 35.0743 78.5039 35.4428C78.8701 35.8076 79.1904 36.2161 79.4575 36.6591L76.944 38.2564C76.6881 37.7413 76.3022 37.3024 75.8247 36.9834C75.3211 36.6609 74.7327 36.4971 74.1355 36.5131C73.6842 36.508 73.2368 36.5978 72.8222 36.7766C72.4384 36.9452 72.0921 37.1892 71.8038 37.4942C71.5143 37.8026 71.2878 38.1648 71.1371 38.5605C70.9782 38.9786 70.8974 39.4225 70.8986 39.87C70.8951 40.3117 70.9732 40.7502 71.129 41.1633C71.2767 41.555 71.5006 41.9133 71.7877 42.2174C72.0752 42.5197 72.4182 42.7633 72.7979 42.935C73.2098 43.1133 73.6547 43.2018 74.1032 43.1945C74.7499 43.2191 75.3861 43.0249 75.9095 42.6431C76.3911 42.2776 76.7699 41.7928 77.0087 41.2363L79.6515 42.6512C79.4009 43.1466 79.0871 43.6073 78.718 44.0215C78.3465 44.4332 77.9242 44.7956 77.4613 45.1C76.9825 45.4051 76.4627 45.6399 75.9176 45.7973C75.3287 45.954 74.7203 46.025 74.1113 46.0081V46.0081Z" fill="#1E1E1C"/>
<path d="M87.8245 41.2151H83.9006V45.841H81.0234V33.8242H83.8966V38.4055H87.8204V33.8242H90.6936V45.841H87.8204L87.8245 41.2151Z" fill="#1E1E1C"/>
<path d="M98.5676 46.0053C97.7438 46.0114 96.9278 45.8457 96.1713 45.5188C95.4448 45.2071 94.7838 44.76 94.2235 44.2012C93.6653 43.64 93.2219 42.9748 92.9182 42.243C92.2877 40.6998 92.2877 38.9697 92.9182 37.4265C93.5355 35.9491 94.7024 34.7711 96.1713 34.1426C96.9303 33.8242 97.7448 33.6602 98.5676 33.6602C99.3903 33.6602 100.205 33.8242 100.964 34.1426C101.693 34.4566 102.357 34.9065 102.92 35.4683C103.479 36.0306 103.924 36.6954 104.233 37.4265C104.708 38.5586 104.838 39.8066 104.605 41.0126C104.373 42.2185 103.789 43.3282 102.928 44.2012C102.367 44.76 101.707 45.2071 100.98 45.5188C100.218 45.8469 99.3966 46.0125 98.5676 46.0053V46.0053ZM98.5676 43.1673C99.0166 43.1716 99.4615 43.0804 99.8728 42.8998C100.263 42.7325 100.615 42.4869 100.907 42.1781C101.51 41.5435 101.843 40.6989 101.837 39.8226C101.838 39.377 101.754 38.9353 101.59 38.5212C101.431 38.1244 101.196 37.7623 100.899 37.4549C100.438 36.9782 99.843 36.6535 99.1934 36.5238C98.5439 36.3942 97.8704 36.4659 97.2623 36.7292C96.8731 36.896 96.5234 37.1433 96.2359 37.4549C95.7947 37.939 95.4972 38.5373 95.3773 39.1821C95.2573 39.8269 95.3195 40.4926 95.557 41.1037C95.7099 41.4981 95.9377 41.8589 96.2278 42.1659C96.5272 42.4814 96.8878 42.7319 97.2875 42.9021C97.6871 43.0722 98.1173 43.1584 98.5514 43.1552L98.5676 43.1673Z" fill="#1E1E1C"/>
<path d="M112.075 46.009C111.252 46.0151 110.436 45.8494 109.679 45.5225C108.953 45.2118 108.293 44.7645 107.735 44.2049C107.176 43.6441 106.731 42.9789 106.426 42.2467C105.795 40.7036 105.795 38.9734 106.426 37.4303C106.735 36.7001 107.179 36.0356 107.735 35.4721C108.292 34.9086 108.952 34.4584 109.679 34.1464C110.439 33.828 111.254 33.6641 112.077 33.6641C112.901 33.6641 113.716 33.828 114.476 34.1464C115.204 34.4604 115.866 34.9102 116.428 35.4721C116.988 36.0332 117.434 36.6983 117.741 37.4303C118.216 38.5624 118.345 39.8104 118.113 41.0163C117.881 42.2223 117.297 43.332 116.436 44.2049C115.876 44.7647 115.215 45.2119 114.488 45.5225C113.726 45.8506 112.904 46.0163 112.075 46.009ZM112.075 43.1711C112.524 43.1757 112.969 43.0845 113.381 42.9035C113.771 42.7373 114.124 42.4915 114.415 42.1818C114.706 41.8732 114.938 41.513 115.098 41.1196C115.265 40.7092 115.349 40.2696 115.345 39.8263C115.348 39.3806 115.264 38.9385 115.098 38.5249C114.938 38.1281 114.704 37.766 114.407 37.4587C113.946 36.9819 113.351 36.6572 112.701 36.5276C112.052 36.398 111.378 36.4696 110.77 36.7329C110.382 36.8998 110.034 37.1472 109.748 37.4587C109.151 38.1011 108.821 38.9481 108.826 39.8263C108.823 40.2687 108.904 40.7076 109.065 41.1196C109.218 41.514 109.446 41.8747 109.736 42.1818C110.026 42.4887 110.375 42.734 110.762 42.9035C111.175 43.0895 111.623 43.1836 112.075 43.1792V43.1711Z" fill="#1E1E1C"/>
<path d="M119.961 33.8242H122.834V43.0922H128.055V45.841H119.973L119.961 33.8242Z" fill="#1E1E1C"/>
</svg>
